{"title":"Dungeons And Dragons Tv Series Vol 1(hugg2bear)ICM369","uid":6284680,"size":1473170129,"categoryP":"video","categoryS":"tv_shows","magnet":"?xt=urn:btih:75bd6d9ced37a69abd989ecc3cb5b5a20a02596c&amp;dn=Dungeons+And+Dragons+Tv+Series+Vol+1%28hugg2bear%29ICM369&amp;tr=udp%3A%2F%2Ftracker.openbittorrent.com%3A80&amp;tr=udp%3A%2F%2Fopen.demonii.com%3A1337&amp;tr=udp%3A%2F%2Ftracker.coppersurfer.tk%3A6969&amp;tr=udp%3A%2F%2Fexodus.desync.com%3A6969","seeders":1,"leechers":0,"uploader":"ICM369","files":-1,"time":1301568136,"description":"Dungeons And Dragons Tv Series Vol 1(hugg2bear)ICM369\n*****************************************************\n\nThanks to hugg2bear\n\nDungeons &amp; Dragons is an animated television series based on TSR's Dungeons &amp; Dragons role-playing game. A co-production of Marvel Productions and TSR, the show was popular in the United States and ran for three seasons on CBS. The show's story editors were Hank Saroyan (who voice directed the series) and Steve Gerber, both of whom contributed episodes and had a firm hand in the writing of the series.\n__________\n\n01 &quot;The Night of No Tomorrow&quot; Mark Evanier \tSeptember 17, 1983 (1983-09-17)\n\nRight after their arrival in the Realm, the children encounter Merlin the Magician and learn how he saved the town of Helix from a herd of marauding dragons. \nPresto decides to become Merlin's apprentice, but in his attempt to find a spell which could send his friends and himself home, he unleashes the dragons upon Helix once more.\n__________\n \n02 &quot;The Eye of the Beholder&quot; Hank Saroyan September 24, 1983 (1983-09-24)\n\nDungeon Master tasks the children to bring down the deadly Beholder. Their only ally in the struggle is Sir John, a cowardly knight who is soon blackmailed by Venger into leading the children into a trap.\n__________\n \n03 &quot;The Hall of Bones&quot; Paul Dini October 1, 1983 (1983-10-01)\n\nWhile fending off another of Venger's attacks, the children's weapons inexplicably fail, their only hope of recharging them lies in the Hall of Bones, an ancient tomb for the bravest of warriors. \n\nBut Venger learns of their plans to reach the tomb and tries his best to get his prospective prizes into his hands.\n__________\n \n04 &quot;Valley of the Unicorns&quot; Paul Dini &amp; Karl Geurs October 8, 1983 (1983-10-08)\n\nAn evil wizard named Kelek seeks the powers of the Unicorns for his own use. \n\nUni is kidnapped by him, and the children must hurry to save their little protegee.\n___________\n \n05 &quot;In Search of the Dungeon Master&quot; Jeffrey Scott October 15, 1983 (1983-10-15)\n\nEvil warrior Warduke manages to capture Dungeon Master, and the children set out to free him before he is delivered to Venger.\n__________\n \n06 &quot;The Beauty and the Bogbeast&quot; Jeffrey Scott October 22, 1983 (1983-10-22)\n\nThe children encounter a band of enslaved humanoids called Bogbeasts, and Eric of all people must lead them to freedom.\n__________\n \n07 &quot;Prison Without Walls&quot; \tSteve Gerber \tOctober 29, 1983 (1983-10-29)\n\nThe children stumble upon gnome village enslaved by Venger and his orcs and must free their sorcerer. \n\nHowever, Venger has the gnome sorcerer captured within a prison from which there is no apparent escape.\n__________\n\nFormat                           : AVI\nFormat/Info                      : Audio Video Interleave\nFile size                        : 200 MiB\nDuration                         : 20mn 54s\nOverall bit rate                 : 1 340 Kbps\n\nVideo\nID                               : 0\nFormat                           : MPEG-4 Visual\nFormat profile                   : Advanced Simple@L4\nFormat settings, BVOP            : No\nFormat settings, QPel            : No\nFormat settings, GMC             : No warppoints\nFormat settings, Matrix          : Default (H.263)\nCodec ID                         : XVID\nCodec ID/Hint                    : XviD\nDuration                         : 20mn 54s\nBit rate                         : 1 200 Kbps\nWidth                            : 640 pixels\nHeight                           : 480 pixels\nDisplay aspect ratio             : 4:3\nFrame rate                       : 25.000 fps\nColor space                      : YUV\nChroma subsampling               : 4:2:0\nBit depth                        : 8 bits\nScan type                        : Progressive\nBits/(Pixel*Frame)               : 0.156\nStream size                      : 179 MiB (90%)\nWriting library                  : Magic0432\n\nAudio\nID                               : 1\nFormat                           : MPEG Audio\nFormat version                   : Version 1\nFormat profile                   : Layer 3\nMode                             : Joint stereo\nMode extension                   : MS Stereo\nCodec ID                         : 55\nCodec ID/Hint                    : MP3\nDuration                         : 20mn 54s\nBit rate mode                    : Constant\nBit rate                         : 128 Kbps\nChannel(s)                       : 2 channels\nSampling rate                    : 44.1 KHz\nStream size                      : 19.1 MiB (10%)\nAlignment                        : Aligned on interleaves\nInterleave, duration             : 26 ms (0.65 video frame)\n__________\n\nEnjoy:D\n\n","torrent":{"xt":"urn:btih:75bd6d9ced37a69abd989ecc3cb5b5a20a02596c","amp;dn":"Dungeons+And+Dragons+Tv+Series+Vol+1%28hugg2bear%29ICM369","amp;tr":["udp%3A%2F%2Ftracker.openbittorrent.com%3A80","udp%3A%2F%2Fopen.demonii.com%3A1337","udp%3A%2F%2Ftracker.coppersurfer.tk%3A6969","udp%3A%2F%2Fexodus.desync.com%3A6969"],"infoHash":"75bd6d9ced37a69abd989ecc3cb5b5a20a02596c","infoHashBuffer":{"type":"Buffer","data":[117,189,109,156,237,55,166,154,189,152,158,204,60,181,181,162,10,2,89,108]},"announce":[],"urlList":[]}}